<svg xmlns="http://www.w3.org/2000/svg" width="24" height="24" viewBox="0 0 24 24" fill="none" stroke="currentColor" stroke-width="2" stroke-linecap="round" stroke-linejoin="round"><path class="st1" d="M15 11l4.61-3.69c.25-.2.56-.31.89-.31h.09c.78 0 1.41.63 1.41 1.41 0 .38-.15.73-.41 1l-4.99 5.44c-.38.41-.91.65-1.47.65h-5.8c-.53 0-1.04.21-1.41.59L6 18" /><path class="st1" d="M11.5 12h2.05a1.249 1.249 0 0 0 .8-2.21 1.23 1.23 0 0 0-.8-.29H9.33c-.53 0-1.04.21-1.41.59L3 15" /><line class="st1" x1="2" y1="14" x2="7" y2="19" /></svg>