<svg
  xmlns="http://www.w3.org/2000/svg"
  width="24"
  height="24"
  viewBox="0 0 24 24"
  fill="none"
  stroke="currentColor"
  stroke-width="2"
  stroke-linecap="round"
  stroke-linejoin="round"
>
  <path d="M12 18a6 6 0 1 0 0-12 6 6 0 0 0 0 12z" />
  <path d="M12 10v2.667L13 14" />
  <path d="M15.982 16.864l-.31 3.481a1.836 1.836 0 0 1-.57 1.182 1.741 1.741 0 0 1-1.197.473h-3.828a1.741 1.741 0 0 1-1.197-.473 1.838 1.838 0 0 1-.57-1.182L8 16.864m.009-9.728l.31-3.481a1.83 1.83 0 0 1 .567-1.178C9.21 2.17 9.636 2 10.077 2h3.846a1.74 1.74 0 0 1 1.197.473c.327.307.53.728.57 1.182L16 7.136" />
</svg>
